<svg xmlns="http://www.w3.org/2000/svg" width="21.115" height="21.115" viewBox="0 0 21.115 21.115">
  <g id="noun_clock_3744006" transform="translate(121.55 -155.45)">
    <path id="Caminho_86" data-name="Caminho 86" d="M22.007,11.45a10.549,10.549,0,1,0,7.468,3.09,10.557,10.557,0,0,0-7.468-3.09Zm4.349,13.14-1.2,1.682a.513.513,0,0,1-.715.109l-3.752-2.734a.488.488,0,0,1-.21-.412V16.043a.513.513,0,0,1,.513-.513h2.044a.513.513,0,0,1,.5.513v5.889l2.675,1.943a.513.513,0,0,1,.143.715Z" transform="translate(-133 144)" fill="#003667"/>
  </g>
</svg>
