<svg xmlns="http://www.w3.org/2000/svg" width="9881.054" height="7293.178" viewBox="0 0 9881.054 7293.178">
  <g id="Grupo_9" data-name="Grupo 9" transform="translate(109.063 -2361.646)">
    <g id="Camada_x0020_1" transform="translate(-6167.63 -16303.281)">
      <path id="path155" d="M6428.05,18722.8l8297.86-19.52c225.03,21.811,298.79,128.15,331.14,234.189l19.48,2068.68c-10.03,183.391-124.84,284.439-350.61,273.221l-584.37.01" fill="none" stroke="#fff" stroke-miterlimit="22.926" stroke-width="76.7" fill-rule="evenodd"/>
      <path id="path159" d="M7109.8,21259.8H6408.57c-120.6-61.311-255.78-108.029-272.7-273.221l-38.96-2049.17" fill="none" stroke="#fff" stroke-miterlimit="22.926" stroke-width="76.7" fill-rule="evenodd"/>
      <line id="path161" x2="4538.55" transform="translate(8336.95 19249.699)" fill="none" stroke="#fff" stroke-miterlimit="22.926" stroke-width="76.7"/>
      <line id="path163" y1="19.5" x2="4538.55" transform="translate(8336.95 19757.1)" fill="none" stroke="#fff" stroke-miterlimit="22.926" stroke-width="76.7"/>
      <line id="path165" x2="4538.53" transform="translate(8317.47 20225.5)" fill="none" stroke="#fff" stroke-miterlimit="22.926" stroke-width="76.7"/>
      <path id="path169" d="M9310.87,20791.4h4012.58c216.11,74.779,360.52,166.029,350.61,292.74v585.48H9992.621" fill="none" stroke="#fff" stroke-miterlimit="22.926" stroke-width="76.7" fill-rule="evenodd"/>
      <path id="path171" d="M7888.94,20811c893.57,82.32,1545.96,355.91,1694.63,1170.961" fill="none" stroke="#fff" stroke-miterlimit="22.926" stroke-width="76.7" fill-rule="evenodd"/>
      <path id="path173" d="M7927.9,21376.9c610.32-36.09,849.55,218.01,934.97,605" fill="none" stroke="#fff" stroke-miterlimit="22.926" stroke-width="76.7" fill-rule="evenodd"/>
      <path id="path175" d="M13518.2,19074h1012.88l5.56,362.061,13.92,906.471c-180.14-477.609-392.98-944.3-1032.36-1268.529Z" fill="#e8e3e3" fill-rule="evenodd"/>
      <path id="path179" d="M9618.63,24629.4c91.35,111.221,144.8,118.721,98.28,241.461-47.17,124.461-103,231.631-176.74,356.09-207.13,417.311,75.49,565.85,218.71,697.189h0" fill="none" stroke="#fff" stroke-miterlimit="22.926" stroke-width="76.7" fill-rule="evenodd"/>
      <path id="path179-0" d="M11420.2,24635.1c91.36,111.221,144.8,118.721,98.28,241.461-47.17,124.461-103,231.631-176.74,356.09-207.13,417.311,75.49,565.85,218.72,697.189h0" fill="none" stroke="#fff" stroke-miterlimit="22.926" stroke-width="76.7" fill-rule="evenodd"/>
      <path id="path179-3" d="M10543,24635.1c91.35,111.221,144.8,118.721,98.28,241.461-47.17,124.461-103,231.631-176.74,356.09-207.13,417.311,75.49,565.85,218.71,697.189h0" fill="none" stroke="#fff" stroke-miterlimit="22.926" stroke-width="76.7" fill-rule="evenodd"/>
      <path id="Caminho_122" data-name="Caminho 122" d="M8189.49,22918.4l-40.84,13.6,12.1-13.6Z" fill="#fff"/>
      <path id="Caminho_123" data-name="Caminho 123" d="M13652.9,22075.6l2.05-5.75h13.54Zm212.62,678.471-9.97,34.609a101.01,101.01,0,0,0-26.85-22.33l36.82-12.279Zm1426.17-197.41h17.27l-17.99,29.99c0-8,.32-18.27.72-29.99Zm635.56,31.561,12.37,6.74-28.87,69.92C15918.92,22640.74,15925.89,22614.111,15927.25,22588.221Zm-711.8,1242.27,18.14-30.211H15271l-12.96,33.359-42.59-3.15Z" fill="#fff"/>
      <line id="path1181" y1="219.7" x2="334.42" transform="translate(6093.63 18722.801)" fill="none" stroke="#fff" stroke-miterlimit="22.926" stroke-width="53.2"/>
      <path id="Caminho_124" data-name="Caminho 124" d="M6661.37,23085.6q-47.775,224.476,64.83,358.93,112.23,134.461,348.19,134.471a968.62,968.62,0,0,0,217.43-24.449q106.125-24.451,186.69-57.789l-45.19,326.711q-98.9,26.669-221.51,44.449-122.79,17.774-258.18,17.779-406.71,0-602.3-215.58-195.015-215.581-116.31-586.74,78.9-371.159,364.86-586.74,285.6-215.581,690.09-215.58c100.75,0,190.76,10,269.29,30q118.35,30,180.02,52.23l-107.42,337.82c-46.67-38.529-103.34-67.051-170.76-85.57q-100.56-27.779-209.65-27.779-213.36,0-378.2,138.91-165.015,138.9-211.88,358.93Z" fill="#fff"/>
      <path id="_1" data-name="1" d="M8636.58,23418.8q-44.88,209.985-211.95,335.279-167.221,125.309-399.06,125.311-230.295,0-344.31-125.311-113.88-125.294-69.15-335.279,44.88-211.664,211.95-336.971,167.22-125.309,397.65-125.3,231.99,0,345.72,125.3Q8681.31,23207.139,8636.58,23418.8Zm-314.96,0q24.976-118.529-11.86-183.721t-133.49-65.2q-94.83,0-159.45,65.2-64.77,65.191-89.75,183.721-24.555,115.154,12.98,181.189,37.68,66.044,130.67,66.039,94.83,0,160.59-66.039,65.61-66.044,90.31-181.189Z" fill="#fff"/>
      <path id="_2" data-name="2" d="M9629.99,23859.1h-304.8l96.8-455.51c12.7-59.83,10.73-106.961-6.49-141.391q-25.395-51.645-93.13-51.65c-62.09,0-113.45,22.3-154.66,66.891s-70.84,109.789-88.9,195.58l-82.12,386.08h-304.8l187.39-882.221h277.71l-35.28,165.939c50.24-65.471,104.99-112.891,165.1-142.24q89.745-44.024,204.89-44.02c106.12,0,180.62,32.17,224.09,96.51s52.77,154.66,27.94,270.939l-113.74,535.09Z" fill="#fff"/>
      <path id="_3" data-name="3" d="M10291.5,23527.2c-11.01,51.93-9.03,89.74,6.21,113.449,15.52,23.711,44.02,35.561,85.79,35.561,22.58,0,42.05-1.689,58.7-5.08,16.37-3.391,28.79-5.641,36.98-6.77l-33.87,198.119c-15.24,3.381-42.62,7.051-81.85,11a1192.445,1192.445,0,0,1-119.66,5.93c-114.02,0-192.47-24.84-234.81-74.51q-63.916-74.5-29.63-235.369l80.72-379.311h-174.42l45.16-213.35h179.49l42.33-198.119,317.79-93.141-62.09,291.26h213.36l-45.16,213.35h-213.36l-71.68,336.98Z" fill="#fff"/>
      <path id="_4" data-name="4" d="M10876.3,23859.1h-303.1l187.39-882.221h277.71l-36.13,171.02q69.015-103.289,144.78-147.32,75.36-44.024,156.64-44.02l104.42,10.16-68.86,252.3-94.83-8.471q-111.765,0-186.83,75.359-75.36,75.346-103.86,209.119l-77.33,364.07Z" fill="#fff"/>
      <path id="_5" data-name="5" d="M12400.8,23418.8q-44.88,209.985-211.95,335.279-167.221,125.309-399.06,125.311-230.3,0-344.31-125.311-113.88-125.294-69.15-335.279,44.88-211.664,211.95-336.971,167.221-125.309,397.65-125.3,231.99,0,345.72,125.3,113.88,125.309,69.15,336.971Zm-314.96,0q24.976-118.529-11.86-183.721t-133.49-65.2q-94.83,0-159.45,65.2-64.77,65.191-89.75,183.721-24.555,115.154,12.98,181.189,37.68,66.044,130.67,66.039,94.83,0,160.59-66.039,65.61-66.044,90.31-181.189Z" fill="#fff"/>
      <path id="_6" data-name="6" d="M12761.5,22589.1h304.8l-269.8,1270h-304.8Z" fill="#fff"/>
      <path id="_7" data-name="7" d="M13954.6,23313.8l-49.15-535.52-290.4,535.52h339.55Zm466.32,545.221H14025.1l-39.45-289.1h-510.3l-166.21,289.1h-366.72l801.98-1354.32h442.39Z" fill="#eaaa42"/>
      <path id="_8" data-name="8" d="M15027.6,23323.6l-113.83,535.52h-360.89l287.8-1354.32h613.13q223.14,0,328.23,90.23,104.774,90.226,68.56,260.971-23.76,112.529-108.01,206.641-83.911,94.1-230.57,127.08c55.3,14.23,88.93,54.01,101.87,119.33q18.916,97.98,30.72,187.24l53.03,362.83h-376.41l-38.48-339.551c-4.86-55.619-19.73-102.189-43.98-139.7s-63.71-56.27-118.04-56.27h-93.13Zm54-254.17h145.52c65.97,0,120.95-12.939,164.6-38.811s70.5-63.381,80.85-112.539q18.916-87.3-34.93-123.2-53.355-35.895-173.65-35.9h-116.42l-65.97,310.449Z" fill="#eaaa42" stroke="#eaaa42" stroke-width="1"/>
    </g>
  </g>
</svg>
