<svg xmlns="http://www.w3.org/2000/svg" width="44.599" height="36.191" viewBox="0 0 44.599 36.191">
  <g id="noun_sun_clound_1699989" data-name="noun_sun clound_1699989" transform="translate(-30.801 -58.009)">
    <path id="Caminho_75" data-name="Caminho 75" d="M43.663,20.9a1.048,1.048,0,0,1,1.044,1.044v3.081a1.044,1.044,0,0,1-2.089,0V21.944A1.048,1.048,0,0,1,43.663,20.9Zm9.766,14.884a1.048,1.048,0,0,0,1.044,1.044h3.081a1.044,1.044,0,0,0,0-2.089H54.473A1.048,1.048,0,0,0,53.429,35.784ZM33.166,25.235a1.01,1.01,0,0,0,0,1.462l2.193,2.193a1.01,1.01,0,0,0,1.462,0,1.01,1.01,0,0,0,0-1.462l-2.193-2.193A1.009,1.009,0,0,0,33.166,25.235Zm21.046,0a1.01,1.01,0,0,0-1.462,0l-2.193,2.193a1.01,1.01,0,0,0,0,1.462,1.01,1.01,0,0,0,1.462,0L54.212,26.7A1.009,1.009,0,0,0,54.212,25.235ZM14,47.534a9.539,9.539,0,0,1,9.5-9.5,3.212,3.212,0,0,1,.679.052,12.662,12.662,0,0,1,10.863-6.319A9.576,9.576,0,1,1,51.183,41.842a7.83,7.83,0,0,1-2.507,15.249H23.5A9.619,9.619,0,0,1,14,47.534ZM37.292,31.919a12.777,12.777,0,0,1,10.131,9.557,10.2,10.2,0,0,1,1.2-.1h0a4.839,4.839,0,0,0,.731-.731,7.446,7.446,0,0,0-5.692-12.273A7.378,7.378,0,0,0,37.292,31.919Zm-21.2,15.615A7.444,7.444,0,0,0,23.5,54.95h25.12a5.745,5.745,0,1,0,0-11.489,6.566,6.566,0,0,0-1.723.261l-1.149.366-.209-1.2A10.54,10.54,0,0,0,25.7,39.648l-.366.627-.731-.1a9.568,9.568,0,0,0-1.1-.1A7.455,7.455,0,0,0,16.089,47.534Z" transform="translate(16.801 37.109)" fill="#515151"/>
  </g>
</svg>
